<svg xmlns="http://www.w3.org/2000/svg" width="390" height="136" viewBox="0 0 390 136">
<style>
@keyframes drift-a { 0%, 100% { transform: translate(0px, 0px); } 50% { transform: translate(40px, -18px); } }
@keyframes drift-b { 0%, 100% { transform: translate(0px, 0px); } 50% { transform: translate(-36px, 16px); } }
@keyframes breathe { 0%, 100% { opacity: 0.55; } 50% { opacity: 1; } }
@keyframes scan { 0% { transform: translateX(-300px); } 100% { transform: translateX(1100px); } }
@keyframes twinkle { 0%, 100% { opacity: 1; } 50% { opacity: 0.4; } }
.drift-a { animation: drift-a 9s ease-in-out infinite; }
.drift-b { animation: drift-b 11s ease-in-out infinite; }
.breathe { animation: breathe 6s ease-in-out infinite; }
.scan { animation: scan 7s linear infinite; }
.hot { animation: twinkle 3.4s ease-in-out infinite; }
@media (prefers-reduced-motion: reduce) { * { animation: none !important; } }
</style>
<defs><radialGradient id="glow-violet" cx="50%" cy="50%" r="50%"><stop offset="0%" stop-color="#5b2fe0" stop-opacity="0.75"/><stop offset="100%" stop-color="#5b2fe0" stop-opacity="0"/></radialGradient><radialGradient id="glow-blue" cx="50%" cy="50%" r="50%"><stop offset="0%" stop-color="#2f64ff" stop-opacity="0.45"/><stop offset="100%" stop-color="#2f64ff" stop-opacity="0"/></radialGradient><radialGradient id="glow-cyan" cx="50%" cy="50%" r="50%"><stop offset="0%" stop-color="#22d3ee" stop-opacity="0.4"/><stop offset="100%" stop-color="#22d3ee" stop-opacity="0"/></radialGradient><radialGradient id="glow-magenta" cx="50%" cy="50%" r="50%"><stop offset="0%" stop-color="#b23ad8" stop-opacity="0.35"/><stop offset="100%" stop-color="#b23ad8" stop-opacity="0"/></radialGradient><pattern id="grid" width="32" height="32" patternUnits="userSpaceOnUse"><path d="M32 0H0V32" fill="none" stroke="#ffffff" stroke-opacity="0.035"/></pattern><linearGradient id="scan" x1="0" x2="1"><stop offset="0" stop-color="#9b7fff" stop-opacity="0"/><stop offset="0.5" stop-color="#b9a6ff" stop-opacity="0.55"/><stop offset="1" stop-color="#9b7fff" stop-opacity="0"/></linearGradient><linearGradient id="name-fill" x1="180" x2="620" y1="0" y2="0" gradientUnits="userSpaceOnUse"><stop offset="0" stop-color="#ffffff"/><stop offset="0.55" stop-color="#e6ddff"/><stop offset="1" stop-color="#9fe9f7"/></linearGradient><clipPath id="card"><rect width="390" height="136" rx="14"/></clipPath></defs>
<g clip-path="url(#card)">
<rect width="390" height="136" fill="#07060d"/>
<g class="drift-b"><ellipse cx="350" cy="10" rx="170" ry="110" fill="url(#glow-violet)" opacity="0.7"/></g>
<g class="breathe"><ellipse cx="40" cy="150" rx="140" ry="70" fill="url(#glow-blue)" opacity="0.5"/></g>
<path d="M22.12 38L20.33 38L24.19 26.12L26.67 26.12L30.54 38L28.75 38L25.19 27.16L25.63 27.16L22.12 38ZM28.54 35.32L22.33 35.32L22.33 33.70L28.54 33.70L28.54 35.32ZM35.52 38L33.77 38L30.54 29.09L32.28 29.09L34.64 35.84L37.01 29.09L38.75 29.09L35.52 38ZM42.13 27.63L40.40 27.63L40.40 25.95L42.13 25.95L42.13 27.63ZM42.13 38L40.40 38L40.40 29.09L42.13 29.09L42.13 38ZM49.70 36.54L49.70 38Q48.86 38.16 48.05 38.14Q47.24 38.12 46.61 37.83Q45.97 37.54 45.65 36.92L45.65 36.92Q45.36 36.37 45.34 35.79Q45.32 35.22 45.32 34.49L45.32 34.49L45.32 26.62L47.05 26.62L47.05 34.41Q47.05 34.95 47.06 35.34Q47.08 35.74 47.23 36.01L47.23 36.01Q47.53 36.52 48.18 36.59Q48.83 36.66 49.70 36.54L49.70 36.54ZM49.70 30.48L43.61 30.48L43.61 29.09L49.70 29.09L49.70 30.48ZM55.03 38.25L55.03 38.25Q53.69 38.25 52.71 37.65Q51.73 37.04 51.20 35.98Q50.67 34.92 50.67 33.54L50.67 33.54Q50.67 32.14 51.21 31.08Q51.75 30.02 52.74 29.43Q53.72 28.84 55.03 28.84L55.03 28.84Q56.37 28.84 57.35 29.44Q58.33 30.05 58.87 31.10Q59.40 32.16 59.40 33.54L59.40 33.54Q59.40 34.93 58.86 35.99Q58.32 37.05 57.34 37.65Q56.36 38.25 55.03 38.25ZM55.03 36.62L55.03 36.62Q56.31 36.62 56.94 35.76Q57.57 34.90 57.57 33.54L57.57 33.54Q57.57 32.14 56.93 31.31Q56.29 30.47 55.03 30.47L55.03 30.47Q54.16 30.47 53.60 30.86Q53.04 31.25 52.77 31.94Q52.50 32.63 52.50 33.54L52.50 33.54Q52.50 34.94 53.14 35.78Q53.78 36.62 55.03 36.62ZM62.94 38L61.22 38L61.22 26.12L66.02 26.12Q66.19 26.12 66.45 26.13Q66.70 26.14 66.93 26.19L66.93 26.19Q67.92 26.34 68.59 26.86Q69.25 27.38 69.58 28.17Q69.91 28.97 69.91 29.92L69.91 29.92Q69.91 31.34 69.19 32.37Q68.46 33.40 67.01 33.65L67.01 33.65L66.31 33.73L62.94 33.73L62.94 38ZM70.14 38L68.16 38L65.82 33.17L67.56 32.72L70.14 38ZM62.94 27.75L62.94 32.10L65.95 32.10Q66.12 32.10 66.32 32.08Q66.52 32.07 66.70 32.03L66.70 32.03Q67.23 31.90 67.55 31.57Q67.87 31.23 68.02 30.80Q68.16 30.36 68.16 29.92L68.16 29.92Q68.16 29.49 68.02 29.05Q67.87 28.62 67.55 28.29Q67.23 27.95 66.70 27.83L66.70 27.83Q66.52 27.78 66.32 27.76Q66.12 27.75 65.95 27.75L65.95 27.75L62.94 27.75ZM74.47 38.25L74.47 38.25Q73.48 38.25 72.81 37.88Q72.14 37.51 71.80 36.91Q71.46 36.30 71.46 35.57L71.46 35.57Q71.46 34.90 71.69 34.39Q71.93 33.88 72.40 33.52Q72.87 33.16 73.56 32.93L73.56 32.93Q74.15 32.76 74.90 32.63Q75.65 32.50 76.48 32.38Q77.31 32.27 78.13 32.15L78.13 32.15L77.50 32.50Q77.52 31.45 77.06 30.94Q76.60 30.43 75.49 30.43L75.49 30.43Q74.79 30.43 74.20 30.76Q73.62 31.09 73.39 31.84L73.39 31.84L71.78 31.34Q72.11 30.20 73.04 29.52Q73.96 28.84 75.51 28.84L75.51 28.84Q76.70 28.84 77.59 29.25Q78.48 29.66 78.89 30.54L78.89 30.54Q79.10 30.98 79.15 31.47Q79.20 31.95 79.20 32.51L79.20 32.51L79.20 38L77.68 38L77.68 35.96L77.97 36.23Q77.42 37.25 76.57 37.75Q75.71 38.25 74.47 38.25ZM74.77 36.84L74.77 36.84Q75.51 36.84 76.03 36.58Q76.56 36.32 76.88 35.91Q77.21 35.51 77.30 35.07L77.30 35.07Q77.44 34.68 77.47 34.18Q77.49 33.69 77.49 33.39L77.49 33.39L78.05 33.59Q77.23 33.72 76.56 33.82Q75.89 33.92 75.35 34.01Q74.81 34.11 74.39 34.24L74.39 34.24Q74.04 34.36 73.76 34.53Q73.48 34.71 73.32 34.96Q73.16 35.20 73.16 35.56L73.16 35.56Q73.16 35.90 73.34 36.20Q73.51 36.49 73.86 36.66Q74.22 36.84 74.77 36.84ZM84.89 38.25L84.89 38.25Q83.64 38.25 82.74 37.63Q81.83 37.01 81.34 35.94Q80.85 34.87 80.85 33.54L80.85 33.54Q80.85 32.19 81.35 31.13Q81.84 30.07 82.75 29.46Q83.67 28.84 84.92 28.84L84.92 28.84Q86.18 28.84 87.04 29.46Q87.91 30.07 88.35 31.14Q88.79 32.20 88.79 33.54L88.79 33.54Q88.79 34.87 88.34 35.94Q87.90 37.00 87.03 37.62Q86.16 38.25 84.89 38.25ZM85.13 36.69L85.13 36.69Q85.98 36.69 86.51 36.28Q87.05 35.88 87.30 35.17Q87.54 34.46 87.54 33.54L87.54 33.54Q87.54 32.61 87.29 31.90Q87.04 31.19 86.52 30.80Q85.99 30.40 85.18 30.40L85.18 30.40Q84.33 30.40 83.77 30.82Q83.22 31.24 82.95 31.95Q82.68 32.66 82.68 33.54L82.68 33.54Q82.68 34.42 82.95 35.13Q83.22 35.85 83.76 36.27Q84.30 36.69 85.13 36.69ZM89.08 38L87.54 38L87.54 31.59L87.34 31.59L87.34 26.12L89.08 26.12L89.08 38ZM93.90 38.25L93.90 38.25Q92.91 38.25 92.25 37.88Q91.58 37.51 91.23 36.91Q90.89 36.30 90.89 35.57L90.89 35.57Q90.89 34.90 91.13 34.39Q91.37 33.88 91.84 33.52Q92.31 33.16 93.00 32.93L93.00 32.93Q93.59 32.76 94.34 32.63Q95.09 32.50 95.92 32.38Q96.75 32.27 97.57 32.15L97.57 32.15L96.94 32.50Q96.96 31.45 96.50 30.94Q96.04 30.43 94.93 30.43L94.93 30.43Q94.23 30.43 93.64 30.76Q93.05 31.09 92.82 31.84L92.82 31.84L91.21 31.34Q91.54 30.20 92.47 29.52Q93.40 28.84 94.94 28.84L94.94 28.84Q96.14 28.84 97.03 29.25Q97.91 29.66 98.33 30.54L98.33 30.54Q98.54 30.98 98.59 31.47Q98.64 31.95 98.64 32.51L98.64 32.51L98.64 38L97.11 38L97.11 35.96L97.41 36.23Q96.86 37.25 96.00 37.75Q95.15 38.25 93.90 38.25ZM94.21 36.84L94.21 36.84Q94.94 36.84 95.47 36.58Q96.00 36.32 96.32 35.91Q96.64 35.51 96.74 35.07L96.74 35.07Q96.88 34.68 96.90 34.18Q96.92 33.69 96.92 33.39L96.92 33.39L97.48 33.59Q96.67 33.72 96.00 33.82Q95.33 33.92 94.79 34.01Q94.25 34.11 93.83 34.24L93.83 34.24Q93.47 34.36 93.20 34.53Q92.92 34.71 92.76 34.96Q92.60 35.20 92.60 35.56L92.60 35.56Q92.60 35.90 92.77 36.20Q92.95 36.49 93.30 36.66Q93.66 36.84 94.21 36.84ZM102.52 38L100.78 38L100.78 29.09L102.32 29.09L102.32 31.25L102.10 30.97Q102.27 30.54 102.53 30.18Q102.80 29.82 103.14 29.59L103.14 29.59Q103.48 29.35 103.90 29.21Q104.31 29.07 104.75 29.04Q105.19 29.02 105.59 29.09L105.59 29.09L105.59 30.71Q105.16 30.59 104.62 30.64Q104.09 30.69 103.65 30.98L103.65 30.98Q103.23 31.25 102.98 31.64Q102.74 32.03 102.63 32.50Q102.52 32.98 102.52 33.50L102.52 33.50L102.52 38Z" fill="#f3f0ff"/>
<path d="M24.35 62L20.88 62L20.88 53L26.43 53L26.43 53.88L21.79 53.88L21.79 56.50L24.35 56.50Q24.48 56.50 24.65 56.51Q24.81 56.52 24.98 56.54L24.98 56.54Q25.68 56.64 26.17 57.02Q26.66 57.40 26.92 57.98Q27.18 58.56 27.18 59.25L27.18 59.25Q27.18 59.94 26.92 60.52Q26.66 61.10 26.17 61.48Q25.68 61.86 24.98 61.96L24.98 61.96Q24.81 61.98 24.65 61.99Q24.48 62 24.35 62L24.35 62ZM21.79 57.38L21.79 61.12L24.32 61.12Q24.44 61.12 24.59 61.11Q24.74 61.09 24.88 61.07L24.88 61.07Q25.57 60.93 25.90 60.40Q26.23 59.88 26.23 59.25L26.23 59.25Q26.23 58.62 25.90 58.09Q25.57 57.57 24.88 57.43L24.88 57.43Q24.74 57.40 24.59 57.39Q24.44 57.38 24.32 57.38L24.32 57.38L21.79 57.38ZM31.24 62.19L31.24 62.19Q30.24 62.19 29.53 61.73Q28.81 61.27 28.43 60.47Q28.05 59.66 28.05 58.62L28.05 58.62Q28.05 57.56 28.44 56.76Q28.82 55.96 29.54 55.51Q30.26 55.06 31.24 55.06L31.24 55.06Q32.26 55.06 32.97 55.52Q33.69 55.97 34.07 56.77Q34.44 57.58 34.44 58.62L34.44 58.62Q34.44 59.68 34.06 60.48Q33.68 61.29 32.96 61.74Q32.24 62.19 31.24 62.19ZM31.24 61.31L31.24 61.31Q32.37 61.31 32.92 60.56Q33.47 59.81 33.47 58.62L33.47 58.62Q33.47 57.39 32.92 56.67Q32.36 55.94 31.24 55.94L31.24 55.94Q30.49 55.94 30.00 56.28Q29.51 56.63 29.27 57.23Q29.03 57.83 29.03 58.62L29.03 58.62Q29.03 59.84 29.59 60.57Q30.15 61.31 31.24 61.31ZM38.40 62L37.48 62L37.48 56.10L35.09 56.10L35.09 55.25L40.79 55.25L40.79 56.10L38.40 56.10L38.40 62ZM49.08 55.25L49.84 55.25L49.84 62L48.95 62L48.95 56.74L45.25 62L44.48 62L44.48 55.25L45.37 55.25L45.37 60.46L49.08 55.25ZM54.98 62L54.09 62L54.09 53L54.94 53L58.48 60.57L61.99 53L62.85 53L62.85 61.99L61.98 61.99L61.98 55.05L58.77 62L58.17 62L54.98 55.05L54.98 62ZM65.64 53.97L64.72 53.97L64.72 52.94L65.64 52.94L65.64 53.97ZM65.64 62L64.72 62L64.72 55.25L65.64 55.25L65.64 62ZM73.32 62L72.39 62L72.39 58.56Q72.39 57.99 72.29 57.52Q72.18 57.05 71.95 56.70Q71.71 56.34 71.34 56.15Q70.97 55.96 70.44 55.96L70.44 55.96Q69.95 55.96 69.58 56.13Q69.21 56.29 68.95 56.61Q68.70 56.92 68.57 57.38Q68.44 57.83 68.44 58.40L68.44 58.40L67.79 58.26Q67.79 57.22 68.15 56.51Q68.51 55.81 69.15 55.44Q69.79 55.08 70.61 55.08L70.61 55.08Q71.22 55.08 71.67 55.27Q72.13 55.46 72.44 55.77Q72.76 56.09 72.95 56.50Q73.14 56.91 73.23 57.37Q73.32 57.83 73.32 58.29L73.32 58.29L73.32 62ZM68.44 62L67.51 62L67.51 55.25L68.34 55.25L68.34 56.91L68.44 56.91L68.44 62ZM75.99 53.97L75.07 53.97L75.07 52.94L75.99 52.94L75.99 53.97ZM75.99 62L75.07 62L75.07 55.25L75.99 55.25L75.99 62ZM80.69 62L79.74 62L82.84 53L84.06 53L87.16 62L86.20 62L83.26 53.51L83.62 53.51L80.69 62ZM85.77 59.82L81.12 59.82L81.12 58.96L85.77 58.96L85.77 59.82ZM91.31 62.19L91.31 62.19Q90.38 62.19 89.74 61.72Q89.09 61.24 88.76 60.43Q88.43 59.63 88.43 58.62L88.43 58.62Q88.43 57.59 88.77 56.79Q89.10 55.99 89.75 55.52Q90.40 55.06 91.35 55.06L91.35 55.06Q92.28 55.06 92.94 55.53Q93.60 56 93.95 56.81Q94.31 57.61 94.31 58.62L94.31 58.62Q94.31 59.63 93.95 60.44Q93.59 61.24 92.93 61.72Q92.26 62.19 91.31 62.19ZM89.20 65L88.28 65L88.28 55.25L89.10 55.25L89.10 60.33L89.20 60.33L89.20 65ZM91.22 61.33L91.22 61.33Q91.93 61.33 92.39 60.98Q92.86 60.62 93.10 60.00Q93.33 59.39 93.33 58.62L93.33 58.62Q93.33 57.86 93.10 57.24Q92.87 56.63 92.40 56.27Q91.93 55.92 91.20 55.92L91.20 55.92Q90.49 55.92 90.03 56.26Q89.56 56.61 89.33 57.22Q89.10 57.83 89.10 58.62L89.10 58.62Q89.10 59.40 89.33 60.02Q89.56 60.63 90.03 60.98Q90.50 61.33 91.22 61.33ZM98.71 62.19L98.71 62.19Q97.78 62.19 97.14 61.72Q96.49 61.24 96.16 60.43Q95.83 59.63 95.83 58.62L95.83 58.62Q95.83 57.59 96.17 56.79Q96.50 55.99 97.15 55.52Q97.80 55.06 98.75 55.06L98.75 55.06Q99.68 55.06 100.34 55.53Q101.00 56 101.35 56.81Q101.71 57.61 101.71 58.62L101.71 58.62Q101.71 59.63 101.35 60.44Q100.99 61.24 100.33 61.72Q99.66 62.19 98.71 62.19ZM96.60 65L95.68 65L95.68 55.25L96.50 55.25L96.50 60.33L96.60 60.33L96.60 65ZM98.62 61.33L98.62 61.33Q99.33 61.33 99.79 60.98Q100.26 60.62 100.50 60.00Q100.73 59.39 100.73 58.62L100.73 58.62Q100.73 57.86 100.50 57.24Q100.27 56.63 99.80 56.27Q99.33 55.92 98.60 55.92L98.60 55.92Q97.89 55.92 97.43 56.26Q96.96 56.61 96.73 57.22Q96.50 57.83 96.50 58.62L96.50 58.62Q96.50 59.40 96.73 60.02Q96.96 60.63 97.43 60.98Q97.90 61.33 98.62 61.33ZM104.65 61L103.58 61L103.58 59.93L104.65 59.93L104.65 61ZM104.66 57.32L103.59 57.32L103.59 56.25L104.66 56.25L104.66 57.32ZM110.23 62L109.31 62L109.31 55.25L110.23 55.25L110.23 58.18L114.04 58.18L114.04 55.25L114.96 55.25L114.96 62L114.04 62L114.04 59.06L110.23 59.06L110.23 62ZM119.53 62.19L119.53 62.19Q118.52 62.19 117.81 61.73Q117.09 61.27 116.71 60.47Q116.33 59.66 116.33 58.62L116.33 58.62Q116.33 57.56 116.72 56.76Q117.11 55.96 117.82 55.51Q118.54 55.06 119.53 55.06L119.53 55.06Q120.54 55.06 121.25 55.52Q121.97 55.97 122.35 56.77Q122.73 57.58 122.73 58.62L122.73 58.62Q122.73 59.68 122.34 60.48Q121.96 61.29 121.24 61.74Q120.53 62.19 119.53 62.19ZM119.53 61.31L119.53 61.31Q120.65 61.31 121.20 60.56Q121.75 59.81 121.75 58.62L121.75 58.62Q121.75 57.39 121.20 56.67Q120.64 55.94 119.53 55.94L119.53 55.94Q118.77 55.94 118.28 56.28Q117.79 56.63 117.55 57.23Q117.31 57.83 117.31 58.62L117.31 58.62Q117.31 59.84 117.87 60.57Q118.43 61.31 119.53 61.31ZM127.24 62L124.09 62L124.09 55.25L126.88 55.25Q127.09 55.25 127.39 55.27Q127.69 55.30 127.96 55.37L127.96 55.37Q128.53 55.52 128.87 55.98Q129.22 56.44 129.22 57.09L129.22 57.09Q129.22 57.46 129.11 57.74Q129.00 58.02 128.80 58.23L128.80 58.23Q128.71 58.34 128.59 58.42Q128.48 58.49 128.38 58.54L128.38 58.54Q128.58 58.58 128.81 58.72L128.81 58.72Q129.17 58.93 129.36 59.29Q129.54 59.65 129.54 60.16L129.54 60.16Q129.54 60.86 129.21 61.29Q128.88 61.73 128.33 61.89L128.33 61.89Q128.08 61.96 127.78 61.98Q127.49 62 127.24 62L127.24 62ZM125.02 59.02L125.02 61.22L127.19 61.22Q127.33 61.22 127.53 61.20Q127.73 61.17 127.88 61.14L127.88 61.14Q128.25 61.04 128.42 60.76Q128.59 60.48 128.59 60.14L128.59 60.14Q128.59 59.69 128.33 59.41Q128.08 59.13 127.64 59.06L127.64 59.06Q127.50 59.03 127.34 59.02Q127.19 59.02 127.06 59.02L127.06 59.02L125.02 59.02ZM125.02 56.04L125.02 58.23L126.91 58.23Q127.07 58.23 127.27 58.21Q127.48 58.19 127.63 58.13L127.63 58.13Q127.95 58.02 128.10 57.74Q128.26 57.47 128.26 57.14L128.26 57.14Q128.26 56.79 128.09 56.52Q127.93 56.25 127.59 56.14L127.59 56.14Q127.37 56.06 127.11 56.05Q126.85 56.04 126.78 56.04L126.78 56.04L125.02 56.04ZM132.97 62L130.80 62L130.79 55.25L131.71 55.25L131.71 57.79L132.89 57.79Q133.18 57.79 133.46 57.81Q133.74 57.82 133.97 57.86L133.97 57.86Q134.47 57.96 134.86 58.19Q135.24 58.43 135.47 58.85Q135.69 59.26 135.69 59.89L135.69 59.89Q135.69 60.76 135.24 61.26Q134.79 61.76 134.11 61.91L134.11 61.91Q133.86 61.97 133.56 61.98Q133.26 62 132.97 62L132.97 62ZM131.71 58.58L131.71 61.21L132.93 61.21Q133.14 61.21 133.40 61.20Q133.66 61.19 133.86 61.13L133.86 61.13Q134.20 61.04 134.47 60.75Q134.74 60.47 134.74 59.89L134.74 59.89Q134.74 59.33 134.48 59.03Q134.22 58.74 133.78 58.65L133.78 58.65Q133.58 58.61 133.36 58.59Q133.14 58.58 132.93 58.58L132.93 58.58L131.71 58.58ZM137.42 62L136.50 62L136.50 55.25L137.42 55.25L137.42 62ZM142.03 62.19L142.03 62.19Q141.04 62.19 140.32 61.75Q139.59 61.31 139.19 60.52Q138.79 59.73 138.79 58.66L138.79 58.66Q138.79 57.55 139.19 56.74Q139.58 55.94 140.30 55.50Q141.01 55.06 141.99 55.06L141.99 55.06Q142.99 55.06 143.69 55.52Q144.40 55.98 144.76 56.84Q145.13 57.69 145.09 58.88L145.09 58.88L144.16 58.88L144.16 58.56Q144.13 57.24 143.59 56.58Q143.05 55.91 142.01 55.91L142.01 55.91Q140.93 55.91 140.35 56.61Q139.77 57.32 139.77 58.63L139.77 58.63Q139.77 59.90 140.35 60.60Q140.93 61.31 141.99 61.31L141.99 61.31Q142.71 61.31 143.25 60.97Q143.79 60.64 144.11 60.01L144.11 60.01L144.96 60.34Q144.56 61.22 143.78 61.70Q143.01 62.19 142.03 62.19ZM144.60 58.88L139.44 58.88L139.44 58.11L144.60 58.11L144.60 58.88ZM151.79 62.19L151.79 62.19Q150.79 62.19 150.08 61.73Q149.36 61.27 148.98 60.47Q148.60 59.66 148.60 58.62L148.60 58.62Q148.60 57.56 148.99 56.76Q149.38 55.96 150.09 55.51Q150.81 55.06 151.79 55.06L151.79 55.06Q152.81 55.06 153.52 55.52Q154.24 55.97 154.62 56.77Q154.99 57.58 154.99 58.62L154.99 58.62Q154.99 59.68 154.61 60.48Q154.23 61.29 153.51 61.74Q152.79 62.19 151.79 62.19ZM151.79 61.31L151.79 61.31Q152.92 61.31 153.47 60.56Q154.02 59.81 154.02 58.62L154.02 58.62Q154.02 57.39 153.47 56.67Q152.91 55.94 151.79 55.94L151.79 55.94Q151.04 55.94 150.55 56.28Q150.06 56.63 149.82 57.23Q149.58 57.83 149.58 58.62L149.58 58.62Q149.58 59.84 150.14 60.57Q150.70 61.31 151.79 61.31ZM159.08 62.19L159.08 62.19Q158.13 62.19 157.46 61.78Q156.78 61.38 156.41 60.57Q156.04 59.76 156.01 58.56L156.01 58.56Q155.99 58.02 156.03 57.40Q156.08 56.77 156.17 56.20Q156.26 55.63 156.39 55.27L156.39 55.27Q156.56 54.81 156.86 54.41Q157.16 54.01 157.56 53.75L157.56 53.75Q157.95 53.49 158.44 53.34Q158.93 53.19 159.47 53.11Q160.00 53.03 160.53 52.97Q161.06 52.91 161.51 52.81L161.51 52.81L161.61 53.64Q161.26 53.71 160.79 53.77Q160.33 53.83 159.81 53.90Q159.30 53.98 158.83 54.11Q158.36 54.24 158.03 54.46L158.03 54.46Q157.53 54.76 157.25 55.38Q156.98 56 156.92 56.80L156.92 56.80Q157.31 56.19 157.95 55.89Q158.59 55.58 159.34 55.58L159.34 55.58Q160.25 55.58 160.91 56Q161.57 56.42 161.93 57.16Q162.28 57.91 162.28 58.87L162.28 58.87Q162.28 59.88 161.89 60.63Q161.50 61.38 160.78 61.78Q160.06 62.19 159.08 62.19ZM159.14 61.31L159.14 61.31Q160.21 61.31 160.76 60.65Q161.31 59.99 161.31 58.89L161.31 58.89Q161.31 57.76 160.74 57.11Q160.17 56.46 159.13 56.46L159.13 56.46Q158.09 56.46 157.54 57.11Q156.98 57.76 156.98 58.89L156.98 58.89Q156.98 60.01 157.54 60.66Q158.09 61.31 159.14 61.31ZM166.54 62L163.96 62L163.95 56.04L163.03 56.04L163.03 55.25L164.88 55.25L164.88 57.79L166.45 57.79Q166.74 57.79 167.03 57.81Q167.31 57.82 167.54 57.86L167.54 57.86Q168.03 57.95 168.42 58.19Q168.81 58.42 169.04 58.84Q169.26 59.26 169.26 59.89L169.26 59.89Q169.26 60.76 168.81 61.26Q168.36 61.76 167.68 61.91L167.68 61.91Q167.43 61.97 167.13 61.98Q166.83 62 166.54 62L166.54 62ZM164.88 58.58L164.88 61.21L166.50 61.21Q166.71 61.21 166.97 61.20Q167.23 61.19 167.43 61.13L167.43 61.13Q167.76 61.04 168.04 60.75Q168.31 60.47 168.31 59.89L168.31 59.89Q168.31 59.33 168.05 59.03Q167.79 58.74 167.35 58.65L167.35 58.65Q167.15 58.61 166.93 58.59Q166.71 58.58 166.50 58.58L166.50 58.58L164.88 58.58ZM175.79 62L174.87 62L174.87 59.46L173.29 59.46Q173.02 59.46 172.73 59.43Q172.44 59.41 172.19 59.37L172.19 59.37Q171.48 59.23 170.98 58.74Q170.48 58.25 170.48 57.38L170.48 57.38Q170.48 56.53 170.94 56.02Q171.41 55.50 172.06 55.34L172.06 55.34Q172.36 55.27 172.67 55.26Q172.98 55.25 173.21 55.25L173.21 55.25L175.79 55.25L175.79 62ZM171.27 62L170.26 62L172.14 59.17L173.16 59.17L171.27 62ZM173.24 58.67L173.24 58.67L174.87 58.67L174.87 56.04L173.24 56.04Q173.09 56.04 172.83 56.05Q172.56 56.06 172.32 56.13L172.32 56.13Q172.11 56.19 171.91 56.35Q171.71 56.50 171.57 56.75Q171.43 57.01 171.43 57.37L171.43 57.37Q171.43 57.88 171.71 58.18Q171.99 58.48 172.41 58.59L172.41 58.59Q172.63 58.64 172.86 58.66Q173.08 58.67 173.24 58.67ZM180.68 62L177.54 62L177.54 55.25L180.32 55.25Q180.53 55.25 180.83 55.27Q181.14 55.30 181.40 55.37L181.40 55.37Q181.97 55.52 182.32 55.98Q182.66 56.44 182.66 57.09L182.66 57.09Q182.66 57.46 182.55 57.74Q182.44 58.02 182.24 58.23L182.24 58.23Q182.15 58.34 182.04 58.42Q181.93 58.49 181.82 58.54L181.82 58.54Q182.02 58.58 182.25 58.72L182.25 58.72Q182.61 58.93 182.80 59.29Q182.99 59.65 182.99 60.16L182.99 60.16Q182.99 60.86 182.66 61.29Q182.33 61.73 181.77 61.89L181.77 61.89Q181.52 61.96 181.23 61.98Q180.94 62 180.68 62L180.68 62ZM178.46 59.02L178.46 61.22L180.64 61.22Q180.77 61.22 180.97 61.20Q181.17 61.17 181.33 61.14L181.33 61.14Q181.69 61.04 181.87 60.76Q182.04 60.48 182.04 60.14L182.04 60.14Q182.04 59.69 181.78 59.41Q181.52 59.13 181.09 59.06L181.09 59.06Q180.94 59.03 180.79 59.02Q180.63 59.02 180.51 59.02L180.51 59.02L178.46 59.02ZM178.46 56.04L178.46 58.23L180.35 58.23Q180.51 58.23 180.72 58.21Q180.92 58.19 181.07 58.13L181.07 58.13Q181.39 58.02 181.55 57.74Q181.70 57.47 181.70 57.14L181.70 57.14Q181.70 56.79 181.53 56.52Q181.37 56.25 181.04 56.14L181.04 56.14Q180.81 56.06 180.55 56.05Q180.29 56.04 180.23 56.04L180.23 56.04L178.46 56.04ZM183.61 62L183.61 62L183.61 61.19Q183.99 61.26 184.18 61.16Q184.38 61.06 184.48 60.81Q184.57 60.56 184.63 60.19L184.63 60.19Q184.73 59.58 184.81 58.84Q184.89 58.11 184.96 57.22Q185.03 56.33 185.09 55.25L185.09 55.25L189.68 55.25L189.68 62L188.77 62L188.77 56.13L185.94 56.13Q185.90 56.79 185.84 57.45Q185.79 58.11 185.73 58.71Q185.67 59.31 185.60 59.82Q185.53 60.33 185.46 60.69L185.46 60.69Q185.34 61.25 185.16 61.58Q184.98 61.91 184.61 62.02Q184.25 62.13 183.61 62ZM194.29 62.19L194.29 62.19Q193.30 62.19 192.58 61.75Q191.86 61.31 191.46 60.52Q191.06 59.73 191.06 58.66L191.06 58.66Q191.06 57.55 191.45 56.74Q191.84 55.94 192.56 55.50Q193.28 55.06 194.25 55.06L194.25 55.06Q195.25 55.06 195.96 55.52Q196.66 55.98 197.03 56.84Q197.39 57.69 197.36 58.88L197.36 58.88L196.42 58.88L196.42 58.56Q196.39 57.24 195.85 56.58Q195.31 55.91 194.28 55.91L194.28 55.91Q193.19 55.91 192.61 56.61Q192.03 57.32 192.03 58.63L192.03 58.63Q192.03 59.90 192.61 60.60Q193.19 61.31 194.25 61.31L194.25 61.31Q194.97 61.31 195.52 60.97Q196.06 60.64 196.37 60.01L196.37 60.01L197.22 60.34Q196.83 61.22 196.05 61.70Q195.27 62.19 194.29 62.19ZM196.86 58.88L191.71 58.88L191.71 58.11L196.86 58.11L196.86 58.88ZM199.65 62L198.73 62L198.73 55.25L199.65 55.25L199.65 58.18L203.46 58.18L203.46 55.25L204.38 55.25L204.38 62L203.46 62L203.46 59.06L199.65 59.06L199.65 62ZM210.72 55.25L211.49 55.25L211.49 62L210.59 62L210.59 56.74L206.89 62L206.12 62L206.12 55.25L207.01 55.25L207.01 60.46L210.72 55.25ZM218.39 62L217.47 62L217.47 59.46L215.89 59.46Q215.62 59.46 215.33 59.43Q215.04 59.41 214.79 59.37L214.79 59.37Q214.08 59.23 213.58 58.74Q213.08 58.25 213.08 57.38L213.08 57.38Q213.08 56.53 213.54 56.02Q214.01 55.50 214.66 55.34L214.66 55.34Q214.96 55.27 215.27 55.26Q215.58 55.25 215.81 55.25L215.81 55.25L218.39 55.25L218.39 62ZM213.87 62L212.86 62L214.74 59.17L215.76 59.17L213.87 62ZM215.84 58.67L215.84 58.67L217.47 58.67L217.47 56.04L215.84 56.04Q215.69 56.04 215.43 56.05Q215.16 56.06 214.92 56.13L214.92 56.13Q214.71 56.19 214.51 56.35Q214.31 56.50 214.17 56.75Q214.03 57.01 214.03 57.37L214.03 57.37Q214.03 57.88 214.31 58.18Q214.59 58.48 215.01 58.59L215.01 58.59Q215.23 58.64 215.46 58.66Q215.68 58.67 215.84 58.67ZM227.24 55.25L228.01 55.25L228.01 62L227.11 62L227.11 56.74L223.41 62L222.64 62L222.64 55.25L223.53 55.25L223.53 60.46L227.24 55.25ZM236.85 55.25L237.62 55.25L237.62 62L236.73 62L236.73 56.74L233.03 62L232.25 62L232.25 55.25L233.14 55.25L233.14 60.46L236.85 55.25ZM241.80 62.19L241.80 62.19Q240.78 62.19 240.02 61.74Q239.26 61.29 238.83 60.50L238.83 60.50L239.56 60.03Q239.93 60.66 240.48 60.98Q241.03 61.31 241.74 61.31L241.74 61.31Q242.49 61.31 242.94 60.96Q243.39 60.62 243.39 60.02L243.39 60.02Q243.39 59.61 243.20 59.36Q243.01 59.12 242.62 59.01Q242.24 58.91 241.66 58.91L241.66 58.91L240.86 58.91L240.86 58.12L241.65 58.12Q242.35 58.12 242.78 57.87Q243.21 57.61 243.21 57.07L243.21 57.07Q243.21 56.49 242.78 56.22Q242.35 55.94 241.76 55.94L241.76 55.94Q241.16 55.94 240.62 56.18Q240.09 56.43 239.73 56.82L239.73 56.82L239.14 56.20Q239.64 55.64 240.32 55.35Q241.00 55.06 241.83 55.06L241.83 55.06Q242.48 55.06 243.00 55.29Q243.53 55.52 243.84 55.96Q244.15 56.39 244.15 57.01L244.15 57.01Q244.15 57.58 243.87 58Q243.59 58.42 243.09 58.69L243.09 58.69L243.04 58.35Q243.48 58.43 243.76 58.70Q244.05 58.97 244.19 59.34Q244.33 59.72 244.33 60.11L244.33 60.11Q244.33 60.75 243.99 61.22Q243.66 61.68 243.08 61.93Q242.51 62.19 241.80 62.19ZM246.59 62L245.69 62L245.69 55.25L246.51 55.25L249.14 60.77L251.78 55.25L252.59 55.25L252.59 62L251.71 62L251.71 57.21L249.44 62L248.86 62L246.59 57.21L246.59 62ZM257.20 62.19L257.20 62.19Q256.21 62.19 255.49 61.75Q254.77 61.31 254.37 60.52Q253.97 59.73 253.97 58.66L253.97 58.66Q253.97 57.55 254.36 56.74Q254.76 55.94 255.47 55.50Q256.19 55.06 257.16 55.06L257.16 55.06Q258.16 55.06 258.87 55.52Q259.58 55.98 259.94 56.84Q260.30 57.69 260.27 58.88L260.27 58.88L259.33 58.88L259.33 58.56Q259.31 57.24 258.77 56.58Q258.23 55.91 257.19 55.91L257.19 55.91Q256.10 55.91 255.52 56.61Q254.94 57.32 254.94 58.63L254.94 58.63Q254.94 59.90 255.52 60.60Q256.10 61.31 257.16 61.31L257.16 61.31Q257.89 61.31 258.43 60.97Q258.97 60.64 259.28 60.01L259.28 60.01L260.14 60.34Q259.74 61.22 258.96 61.70Q258.18 62.19 257.20 62.19ZM259.78 58.88L254.62 58.88L254.62 58.11L259.78 58.11L259.78 58.88ZM262.56 62L261.64 62L261.64 55.25L262.56 55.25L262.56 58.18L266.37 58.18L266.37 55.25L267.29 55.25L267.29 62L266.37 62L266.37 59.06L262.56 59.06L262.56 62ZM271.89 62.19L271.89 62.19Q270.91 62.19 270.18 61.75Q269.46 61.31 269.06 60.52Q268.66 59.73 268.66 58.66L268.66 58.66Q268.66 57.55 269.06 56.74Q269.45 55.94 270.17 55.50Q270.88 55.06 271.86 55.06L271.86 55.06Q272.86 55.06 273.56 55.52Q274.27 55.98 274.63 56.84Q274.99 57.69 274.96 58.88L274.96 58.88L274.03 58.88L274.03 58.56Q274 57.24 273.46 56.58Q272.92 55.91 271.88 55.91L271.88 55.91Q270.79 55.91 270.22 56.61Q269.64 57.32 269.64 58.63L269.64 58.63Q269.64 59.90 270.22 60.60Q270.79 61.31 271.86 61.31L271.86 61.31Q272.58 61.31 273.12 60.97Q273.66 60.64 273.98 60.01L273.98 60.01L274.83 60.34Q274.43 61.22 273.65 61.70Q272.88 62.19 271.89 62.19ZM274.47 58.88L269.31 58.88L269.31 58.11L274.47 58.11L274.47 58.88ZM277.26 62L276.34 62L276.34 55.25L277.26 55.25L277.26 58.18L281.06 58.18L281.06 55.25L281.98 55.25L281.98 62L281.06 62L281.06 59.06L277.26 59.06L277.26 62ZM288.33 55.25L289.09 55.25L289.09 62L288.20 62L288.20 56.74L284.50 62L283.73 62L283.73 55.25L284.62 55.25L284.62 60.46L288.33 55.25ZM296.00 62L295.08 62L295.08 59.46L293.50 59.46Q293.23 59.46 292.93 59.43Q292.64 59.41 292.39 59.37L292.39 59.37Q291.68 59.23 291.18 58.74Q290.69 58.25 290.69 57.38L290.69 57.38Q290.69 56.53 291.15 56.02Q291.61 55.50 292.27 55.34L292.27 55.34Q292.57 55.27 292.88 55.26Q293.19 55.25 293.41 55.25L293.41 55.25L295.99 55.25L296.00 62ZM291.48 62L290.47 62L292.35 59.17L293.37 59.17L291.48 62ZM293.45 58.67L293.45 58.67L295.08 58.67L295.08 56.04L293.45 56.04Q293.30 56.04 293.03 56.05Q292.76 56.06 292.53 56.13L292.53 56.13Q292.32 56.19 292.12 56.35Q291.91 56.50 291.78 56.75Q291.64 57.01 291.64 57.37L291.64 57.37Q291.64 57.88 291.92 58.18Q292.19 58.48 292.61 58.59L292.61 58.59Q292.84 58.64 293.06 58.66Q293.29 58.67 293.45 58.67ZM306.97 63.17L306.05 63.17L306.05 62L300.24 62L300.24 55.25L301.16 55.25L301.16 61.12L304.69 61.12L304.69 55.25L305.61 55.25L305.61 61.15L306.97 61.15L306.97 63.17ZM310.83 62.19L310.83 62.19Q309.84 62.19 309.12 61.75Q308.39 61.31 307.99 60.52Q307.59 59.73 307.59 58.66L307.59 58.66Q307.59 57.55 307.99 56.74Q308.38 55.94 309.10 55.50Q309.81 55.06 310.79 55.06L310.79 55.06Q311.79 55.06 312.49 55.52Q313.20 55.98 313.56 56.84Q313.93 57.69 313.89 58.88L313.89 58.88L312.96 58.88L312.96 58.56Q312.93 57.24 312.39 56.58Q311.85 55.91 310.81 55.91L310.81 55.91Q309.73 55.91 309.15 56.61Q308.57 57.32 308.57 58.63L308.57 58.63Q308.57 59.90 309.15 60.60Q309.73 61.31 310.79 61.31L310.79 61.31Q311.51 61.31 312.05 60.97Q312.59 60.64 312.91 60.01L312.91 60.01L313.76 60.34Q313.36 61.22 312.58 61.70Q311.81 62.19 310.83 62.19ZM313.40 58.88L308.24 58.88L308.24 58.11L313.40 58.11L313.40 58.88ZM316.19 62L315.27 62L315.27 55.25L316.19 55.25L316.19 58.18L319.99 58.18L319.99 55.25L320.91 55.25L320.91 62L319.99 62L319.99 59.06L316.19 59.06L316.19 62ZM326.08 62L325.16 62L325.16 55.25L330.53 55.25L330.53 62L329.61 62L329.61 56.13L326.08 56.13L326.08 62ZM335.09 62.19L335.09 62.19Q334.09 62.19 333.38 61.73Q332.66 61.27 332.28 60.47Q331.90 59.66 331.90 58.62L331.90 58.62Q331.90 57.56 332.29 56.76Q332.68 55.96 333.39 55.51Q334.11 55.06 335.09 55.06L335.09 55.06Q336.11 55.06 336.82 55.52Q337.54 55.97 337.92 56.77Q338.29 57.58 338.29 58.62L338.29 58.62Q338.29 59.68 337.91 60.48Q337.53 61.29 336.81 61.74Q336.09 62.19 335.09 62.19ZM335.09 61.31L335.09 61.31Q336.22 61.31 336.77 60.56Q337.32 59.81 337.32 58.62L337.32 58.62Q337.32 57.39 336.77 56.67Q336.21 55.94 335.09 55.94L335.09 55.94Q334.34 55.94 333.85 56.28Q333.36 56.63 333.12 57.23Q332.88 57.83 332.88 58.62L332.88 58.62Q332.88 59.84 333.44 60.57Q334.00 61.31 335.09 61.31Z" fill="#aba6c7"/>
<path d="M23.68 80.19L23.68 80.19Q22.66 80.19 21.95 79.73Q21.24 79.28 20.88 78.47Q20.51 77.67 20.50 76.63L20.50 76.63Q20.51 75.56 20.89 74.76Q21.26 73.96 21.97 73.51Q22.68 73.06 23.68 73.06L23.68 73.06Q24.71 73.06 25.47 73.56Q26.23 74.06 26.51 74.93L26.51 74.93L25.61 75.22Q25.37 74.61 24.85 74.28Q24.34 73.94 23.68 73.94L23.68 73.94Q22.93 73.94 22.44 74.28Q21.96 74.63 21.72 75.23Q21.48 75.84 21.48 76.63L21.48 76.63Q21.49 77.84 22.04 78.57Q22.59 79.31 23.68 79.31L23.68 79.31Q24.36 79.31 24.85 78.99Q25.33 78.67 25.58 78.07L25.58 78.07L26.51 78.34Q26.13 79.24 25.41 79.72Q24.68 80.19 23.68 80.19ZM30.43 80.19L30.43 80.19Q29.42 80.19 28.71 79.73Q27.99 79.28 27.61 78.47Q27.23 77.66 27.23 76.62L27.23 76.62Q27.23 75.56 27.62 74.76Q28.01 73.96 28.72 73.51Q29.44 73.06 30.43 73.06L30.43 73.06Q31.44 73.06 32.15 73.52Q32.87 73.97 33.25 74.77Q33.63 75.58 33.63 76.62L33.63 76.62Q33.63 77.68 33.24 78.48Q32.86 79.29 32.14 79.74Q31.43 80.19 30.43 80.19ZM30.43 79.31L30.43 79.31Q31.55 79.31 32.10 78.56Q32.65 77.81 32.65 76.62L32.65 76.62Q32.65 75.39 32.10 74.67Q31.54 73.94 30.43 73.94L30.43 73.94Q29.67 73.94 29.18 74.28Q28.69 74.63 28.45 75.23Q28.21 75.83 28.21 76.62L28.21 76.62Q28.21 77.84 28.77 78.57Q29.33 79.31 30.43 79.31ZM35.23 80L34.13 80L36.76 76.59L34.18 73.25L35.28 73.25L37.30 75.88L39.30 73.25L40.40 73.25L37.82 76.59L40.46 80L39.36 80L37.30 77.29L35.23 80ZM44.49 80.19L44.49 80.19Q43.56 80.19 42.92 79.72Q42.27 79.24 41.94 78.43Q41.61 77.63 41.61 76.62L41.61 76.62Q41.61 75.59 41.95 74.79Q42.28 73.99 42.93 73.53Q43.58 73.06 44.53 73.06L44.53 73.06Q45.46 73.06 46.12 73.53Q46.78 74 47.13 74.81Q47.49 75.61 47.49 76.62L47.49 76.62Q47.49 77.63 47.13 78.44Q46.77 79.24 46.11 79.72Q45.44 80.19 44.49 80.19ZM42.38 83L41.46 83L41.46 73.25L42.28 73.25L42.28 78.33L42.38 78.33L42.38 83ZM44.40 79.33L44.40 79.33Q45.11 79.33 45.58 78.97Q46.04 78.62 46.28 78.00Q46.51 77.39 46.51 76.62L46.51 76.62Q46.51 75.86 46.28 75.24Q46.05 74.63 45.58 74.28Q45.11 73.92 44.38 73.92L44.38 73.92Q43.67 73.92 43.21 74.26Q42.74 74.61 42.51 75.22Q42.28 75.83 42.28 76.62L42.28 76.62Q42.28 77.40 42.51 78.02Q42.74 78.63 43.21 78.98Q43.68 79.33 44.40 79.33ZM50.79 80.19L50.79 80.19Q50.03 80.19 49.52 79.91Q49 79.64 48.74 79.18Q48.49 78.72 48.49 78.19L48.49 78.19Q48.49 77.64 48.71 77.25Q48.93 76.86 49.32 76.61Q49.70 76.36 50.21 76.22L50.21 76.22Q50.72 76.10 51.34 76.00Q51.96 75.91 52.56 75.83Q53.16 75.76 53.61 75.69L53.61 75.69L53.28 75.89Q53.30 74.89 52.89 74.41Q52.49 73.93 51.48 73.93L51.48 73.93Q50.79 73.93 50.31 74.24Q49.83 74.56 49.64 75.23L49.64 75.23L48.74 74.97Q48.97 74.06 49.67 73.56Q50.38 73.06 51.49 73.06L51.49 73.06Q52.42 73.06 53.07 73.41Q53.71 73.76 53.98 74.41L53.98 74.41Q54.11 74.71 54.14 75.07Q54.18 75.43 54.18 75.81L54.18 75.81L54.18 80L53.36 80L53.36 78.31L53.60 78.41Q53.26 79.28 52.53 79.73Q51.81 80.19 50.79 80.19ZM50.90 79.39L50.90 79.39Q51.54 79.39 52.02 79.16Q52.51 78.93 52.80 78.53Q53.09 78.13 53.18 77.62L53.18 77.62Q53.26 77.29 53.26 76.90Q53.27 76.51 53.27 76.32L53.27 76.32L53.62 76.50Q53.15 76.56 52.60 76.63Q52.06 76.69 51.53 76.77Q51 76.85 50.57 76.96L50.57 76.96Q50.29 77.04 50.02 77.19Q49.75 77.34 49.58 77.58Q49.41 77.83 49.41 78.19L49.41 78.19Q49.41 78.48 49.55 78.76Q49.70 79.03 50.03 79.21Q50.36 79.39 50.90 79.39ZM56.72 80L55.80 80L55.80 73.25L56.72 73.25L56.72 76.18L60.52 76.18L60.52 73.25L61.44 73.25L61.44 80L60.52 80L60.52 77.06L56.72 77.06L56.72 80ZM67.71 71.93L66.71 71.93L66.71 70.93L67.71 70.93L67.71 71.93ZM65.33 71.93L64.33 71.93L64.33 70.93L65.33 70.93L65.33 71.93ZM66.05 80.19L66.05 80.19Q65.06 80.19 64.34 79.75Q63.62 79.31 63.22 78.52Q62.82 77.72 62.82 76.66L62.82 76.66Q62.82 75.55 63.21 74.74Q63.61 73.94 64.32 73.50Q65.04 73.06 66.01 73.06L66.01 73.06Q67.01 73.06 67.72 73.52Q68.42 73.98 68.79 74.84Q69.15 75.69 69.12 76.88L69.12 76.88L68.18 76.88L68.18 76.56Q68.16 75.24 67.62 74.58Q67.08 73.91 66.04 73.91L66.04 73.91Q64.95 73.91 64.37 74.61Q63.79 75.32 63.79 76.63L63.79 76.63Q63.79 77.90 64.37 78.60Q64.95 79.31 66.01 79.31L66.01 79.31Q66.74 79.31 67.28 78.97Q67.82 78.64 68.13 78.01L68.13 78.01L68.99 78.34Q68.59 79.22 67.81 79.70Q67.03 80.19 66.05 80.19ZM68.63 76.88L63.47 76.88L63.47 76.11L68.63 76.11L68.63 76.88ZM71.41 80L70.49 80L70.49 73.25L71.41 73.25L71.41 76.18L75.22 76.18L75.22 73.25L76.14 73.25L76.14 80L75.22 80L75.22 77.06L71.41 77.06L71.41 80ZM78.80 80L77.88 80L77.88 73.25L78.80 73.25L78.80 76.18L82.61 76.18L82.61 73.25L83.53 73.25L83.53 80L82.61 80L82.61 77.06L78.80 77.06L78.80 80ZM87.45 80L85.28 80L85.27 73.25L86.19 73.25L86.19 75.79L87.37 75.79Q87.66 75.79 87.94 75.81Q88.23 75.82 88.45 75.86L88.45 75.86Q88.95 75.96 89.34 76.19Q89.73 76.43 89.95 76.85Q90.18 77.26 90.18 77.89L90.18 77.89Q90.18 78.76 89.73 79.26Q89.28 79.76 88.59 79.91L88.59 79.91Q88.34 79.97 88.04 79.98Q87.74 80 87.45 80L87.45 80ZM86.19 76.58L86.19 79.21L87.41 79.21Q87.62 79.21 87.88 79.20Q88.14 79.19 88.34 79.13L88.34 79.13Q88.68 79.04 88.95 78.75Q89.23 78.47 89.23 77.89L89.23 77.89Q89.23 77.33 88.96 77.03Q88.70 76.74 88.26 76.65L88.26 76.65Q88.06 76.61 87.84 76.59Q87.62 76.58 87.41 76.58L87.41 76.58L86.19 76.58ZM91.90 80L90.98 80L90.98 73.25L91.90 73.25L91.90 80ZM94.54 80L93.64 80L93.64 73.25L94.46 73.25L97.09 78.78L99.73 73.25L100.54 73.25L100.54 80L99.66 80L99.66 75.21L97.39 80L96.81 80L94.54 75.21L94.54 80ZM105.71 80L104.79 80L104.79 73.25L110.16 73.25L110.16 80L109.24 80L109.24 74.13L105.71 74.13L105.71 80ZM114.72 80.19L114.72 80.19Q113.72 80.19 113.01 79.73Q112.29 79.28 111.91 78.47Q111.53 77.66 111.53 76.62L111.53 76.62Q111.53 75.56 111.92 74.76Q112.31 73.96 113.02 73.51Q113.74 73.06 114.72 73.06L114.72 73.06Q115.74 73.06 116.45 73.52Q117.17 73.97 117.55 74.77Q117.92 75.58 117.92 76.62L117.92 76.62Q117.92 77.68 117.54 78.48Q117.16 79.29 116.44 79.74Q115.72 80.19 114.72 80.19ZM114.72 79.31L114.72 79.31Q115.85 79.31 116.40 78.56Q116.95 77.81 116.95 76.62L116.95 76.62Q116.95 75.39 116.40 74.67Q115.84 73.94 114.72 73.94L114.72 73.94Q113.97 73.94 113.48 74.28Q112.99 74.63 112.75 75.23Q112.51 75.83 112.51 76.62L112.51 76.62Q112.51 77.84 113.07 78.57Q113.63 79.31 114.72 79.31ZM123.89 73.25L124.66 73.25L124.66 80L123.77 80L123.77 74.74L120.07 80L119.29 80L119.29 73.25L120.19 73.25L120.19 78.46L123.89 73.25ZM129.21 80.19L129.21 80.19Q128.19 80.19 127.49 79.73Q126.78 79.28 126.42 78.47Q126.05 77.67 126.04 76.63L126.04 76.63Q126.05 75.56 126.42 74.76Q126.80 73.96 127.51 73.51Q128.21 73.06 129.22 73.06L129.22 73.06Q130.24 73.06 131.00 73.56Q131.76 74.06 132.04 74.93L132.04 74.93L131.14 75.22Q130.91 74.61 130.39 74.28Q129.88 73.94 129.21 73.94L129.21 73.94Q128.47 73.94 127.98 74.28Q127.49 74.63 127.26 75.23Q127.02 75.84 127.01 76.63L127.01 76.63Q127.02 77.84 127.57 78.57Q128.13 79.31 129.21 79.31L129.21 79.31Q129.90 79.31 130.38 78.99Q130.87 78.67 131.12 78.07L131.12 78.07L132.04 78.34Q131.67 79.24 130.94 79.72Q130.22 80.19 129.21 80.19ZM134.26 80L133.33 80L133.33 73.25L134.26 73.25L134.26 76.50L137.27 73.25L138.49 73.25L135.33 76.63L138.91 80L137.57 80L134.26 76.75L134.26 80ZM141.46 80.19L141.46 80.19Q140.70 80.19 140.18 79.91Q139.67 79.64 139.41 79.18Q139.16 78.72 139.16 78.19L139.16 78.19Q139.16 77.64 139.38 77.25Q139.60 76.86 139.98 76.61Q140.37 76.36 140.88 76.22L140.88 76.22Q141.39 76.10 142.01 76.00Q142.63 75.91 143.23 75.83Q143.82 75.76 144.28 75.69L144.28 75.69L143.95 75.89Q143.97 74.89 143.56 74.41Q143.16 73.93 142.15 73.93L142.15 73.93Q141.46 73.93 140.98 74.24Q140.50 74.56 140.31 75.23L140.31 75.23L139.41 74.97Q139.64 74.06 140.34 73.56Q141.04 73.06 142.16 73.06L142.16 73.06Q143.09 73.06 143.73 73.41Q144.38 73.76 144.65 74.41L144.65 74.41Q144.78 74.71 144.81 75.07Q144.85 75.43 144.85 75.81L144.85 75.81L144.85 80L144.03 80L144.03 78.31L144.27 78.41Q143.93 79.28 143.20 79.73Q142.47 80.19 141.46 80.19ZM141.57 79.39L141.57 79.39Q142.21 79.39 142.69 79.16Q143.18 78.93 143.47 78.53Q143.76 78.13 143.85 77.62L143.85 77.62Q143.93 77.29 143.93 76.90Q143.94 76.51 143.94 76.32L143.94 76.32L144.29 76.50Q143.82 76.56 143.27 76.63Q142.72 76.69 142.20 76.77Q141.67 76.85 141.24 76.96L141.24 76.96Q140.96 77.04 140.69 77.19Q140.42 77.34 140.25 77.58Q140.07 77.83 140.07 78.19L140.07 78.19Q140.07 78.48 140.22 78.76Q140.37 79.03 140.70 79.21Q141.03 79.39 141.57 79.39ZM147.36 80L146.47 80L146.47 73.25L147.29 73.25L149.92 78.78L152.56 73.25L153.37 73.25L153.37 80L152.48 80L152.48 75.21L150.21 80L149.63 80L147.36 75.21L147.36 80Z" fill="#aba6c7"/>
<line x1="20" x2="370" y1="102" y2="102" stroke="rgba(150,120,255,0.14)"/>
<circle cx="24" cy="119" r="4" fill="#7355dd"/>
<path d="M37.34 123.11L37.34 123.11Q36.60 123.11 36.04 122.83Q35.48 122.55 35.18 122.02Q34.88 121.48 34.88 120.77L34.88 120.77L34.88 117.20Q34.88 116.48 35.18 115.95Q35.48 115.42 36.04 115.14Q36.60 114.86 37.34 114.86L37.34 114.86Q38.09 114.86 38.64 115.15Q39.19 115.43 39.49 115.95Q39.80 116.48 39.80 117.20L39.80 117.20L38.61 117.20Q38.61 116.58 38.28 116.25Q37.95 115.92 37.34 115.92L37.34 115.92Q36.74 115.92 36.40 116.25Q36.07 116.58 36.07 117.19L36.07 117.19L36.07 120.77Q36.07 121.38 36.40 121.72Q36.74 122.05 37.34 122.05L37.34 122.05Q37.95 122.05 38.28 121.72Q38.61 121.38 38.61 120.77L38.61 120.77L39.80 120.77Q39.80 121.48 39.49 122.01Q39.19 122.54 38.64 122.82Q38.09 123.11 37.34 123.11ZM42.36 123L41.47 123L41.85 120.90L40.94 120.90L40.94 120.07L42.00 120.07L42.38 117.90L41.30 117.90L41.30 117.07L42.54 117.07L42.91 114.97L43.80 114.97L43.42 117.07L45.07 117.07L45.44 114.97L46.33 114.97L45.95 117.07L46.86 117.07L46.86 117.90L45.80 117.90L45.42 120.07L46.50 120.07L46.50 120.90L45.26 120.90L44.89 123L44.00 123L44.38 120.90L42.73 120.90L42.36 123ZM43.27 117.90L42.89 120.07L44.53 120.07L44.91 117.90L43.27 117.90Z" fill="#aba6c7"/>
<path d="M310.01 123L304.96 123L304.96 121.94L307.09 121.94L307.09 116.00L304.95 117.60L304.95 116.31L306.78 114.97L308.28 114.97L308.28 121.94L310.01 121.94L310.01 123ZM316.18 123L315 123L315 121.33L311.40 121.33L311.40 119.55L314.53 114.97L315.85 114.97L312.55 119.83L312.55 120.26L315 120.26L315 118.38L316.18 118.38L316.18 123ZM320.50 123.11L320.50 123.11Q319.73 123.11 319.17 122.85Q318.61 122.58 318.30 122.09Q317.99 121.60 317.99 120.95L317.99 120.95Q317.99 120.23 318.39 119.71Q318.78 119.19 319.61 118.81L319.61 118.81L320.76 118.27Q321.20 118.06 321.45 117.71Q321.69 117.37 321.69 116.95L321.69 116.95Q321.69 116.45 321.37 116.17Q321.05 115.88 320.50 115.88L320.50 115.88Q319.95 115.88 319.63 116.17Q319.30 116.47 319.30 116.96L319.30 116.96Q319.30 117.37 319.54 117.71Q319.78 118.06 320.20 118.26L320.20 118.26L321.36 118.79Q322.23 119.19 322.62 119.72Q323.01 120.24 323.01 120.95L323.01 120.95Q323.01 121.94 322.33 122.53Q321.65 123.11 320.50 123.11ZM320.50 122.08L320.50 122.08Q321.12 122.08 321.48 121.75Q321.84 121.43 321.84 120.90L321.84 120.90Q321.84 120.47 321.60 120.10Q321.36 119.73 320.93 119.52L320.93 119.52L319.74 118.96Q318.93 118.58 318.53 118.08Q318.13 117.59 318.13 116.89L318.13 116.89Q318.13 116.29 318.43 115.83Q318.72 115.37 319.25 115.11Q319.77 114.85 320.50 114.85L320.50 114.85Q321.23 114.85 321.75 115.11Q322.28 115.37 322.57 115.83Q322.85 116.29 322.85 116.89L322.85 116.89Q322.85 117.60 322.46 118.08Q322.07 118.57 321.25 118.97L321.25 118.97L320.05 119.53Q319.63 119.73 319.39 120.10Q319.16 120.46 319.16 120.88L319.16 120.88Q319.16 121.42 319.52 121.75Q319.88 122.08 320.50 122.08ZM334.29 123L333.11 123L333.11 118.02L330.97 118.02L330.97 116.95L336.43 116.95L336.43 118.02L334.29 118.02L334.29 123ZM340.30 123.11L340.30 123.11Q339.56 123.11 339.01 122.82Q338.45 122.53 338.15 122.00Q337.86 121.47 337.86 120.77L337.86 120.77L337.86 119.18Q337.86 118.47 338.15 117.95Q338.45 117.42 339.01 117.13Q339.56 116.84 340.30 116.84L340.30 116.84Q341.05 116.84 341.60 117.13Q342.15 117.42 342.44 117.95Q342.74 118.47 342.74 119.18L342.74 119.18L342.74 120.26L339.00 120.26L339.00 120.77Q339.00 121.44 339.34 121.79Q339.67 122.14 340.31 122.14L340.31 122.14Q340.83 122.14 341.15 121.96Q341.47 121.78 341.54 121.43L341.54 121.43L342.72 121.43Q342.59 122.20 341.93 122.65Q341.27 123.11 340.30 123.11ZM341.69 119.45L341.60 119.55L341.60 119.17Q341.60 118.51 341.27 118.15Q340.94 117.79 340.30 117.79L340.30 117.79Q339.67 117.79 339.34 118.15Q339.00 118.51 339.00 119.18L339.00 119.18L339.00 119.46L341.69 119.45ZM346.93 123.11L346.93 123.11Q346.19 123.11 345.62 122.83Q345.05 122.55 344.75 122.02Q344.45 121.48 344.45 120.77L344.45 120.77L344.45 119.18Q344.45 118.46 344.75 117.93Q345.05 117.40 345.62 117.12Q346.19 116.84 346.93 116.84L346.93 116.84Q348.02 116.84 348.68 117.41Q349.34 117.98 349.38 118.97L349.38 118.97L348.19 118.97Q348.15 118.46 347.82 118.17Q347.49 117.89 346.93 117.89L346.93 117.89Q346.33 117.89 345.98 118.22Q345.62 118.56 345.62 119.17L345.62 119.17L345.62 120.77Q345.62 121.38 345.98 121.72Q346.33 122.06 346.93 122.06L346.93 122.06Q347.49 122.06 347.82 121.78Q348.15 121.49 348.19 120.98L348.19 120.98L349.38 120.98Q349.34 121.97 348.68 122.54Q348.02 123.11 346.93 123.11ZM354.09 123L352.91 123L352.91 118.02L350.77 118.02L350.77 116.95L356.23 116.95L356.23 118.02L354.09 118.02L354.09 123ZM360.10 123.10L360.10 123.10Q359.35 123.10 358.80 122.81Q358.25 122.53 357.95 122.00Q357.66 121.47 357.66 120.76L357.66 120.76L357.66 119.19Q357.66 118.47 357.95 117.95Q358.25 117.42 358.80 117.14Q359.35 116.85 360.10 116.85L360.10 116.85Q360.85 116.85 361.40 117.14Q361.95 117.42 362.25 117.95Q362.54 118.47 362.54 119.19L362.54 119.19L362.54 120.76Q362.54 121.47 362.25 122.00Q361.95 122.53 361.40 122.81Q360.85 123.10 360.10 123.10ZM360.10 122.05L360.10 122.05Q360.70 122.05 361.04 121.72Q361.37 121.38 361.37 120.76L361.37 120.76L361.37 119.19Q361.37 118.56 361.04 118.23Q360.70 117.90 360.10 117.90L360.10 117.90Q359.51 117.90 359.17 118.23Q358.84 118.56 358.84 119.19L358.84 119.19L358.84 120.76Q358.84 121.38 359.17 121.72Q359.51 122.05 360.10 122.05ZM367.06 123L364.33 123L364.33 116.95L367.00 116.95Q367.99 116.95 368.55 117.38Q369.11 117.81 369.11 118.57L369.11 118.57Q369.11 119.19 368.66 119.57Q368.21 119.94 367.47 119.94L367.47 119.94L367.47 119.84Q368.27 119.84 368.76 120.23Q369.25 120.62 369.25 121.27L369.25 121.27Q369.25 122.09 368.67 122.54Q368.09 123 367.06 123L367.06 123ZM365.50 120.37L365.50 122.04L367.04 122.04Q367.52 122.04 367.81 121.82Q368.09 121.60 368.09 121.22L368.09 121.22Q368.09 120.82 367.81 120.60Q367.52 120.37 367.04 120.37L367.04 120.37L365.50 120.37ZM365.50 117.91L365.50 119.49L367.00 119.49Q367.44 119.49 367.69 119.28Q367.94 119.07 367.94 118.70L367.94 118.70Q367.94 118.34 367.69 118.12Q367.44 117.91 367.00 117.91L367.00 117.91L365.50 117.91Z" fill="#9b7fff"/>
</g>
<rect x="0.5" y="0.5" width="389" height="135" rx="13.5" fill="none" stroke="rgba(124,92,255,0.30)"/>
</svg>
